HIERARCHY
ROOT hips
{
  OFFSET 0 11.86390953 0.3628582958
  CHANNELS 6 Xposition Yposition Zposition Yrotation Xrotation Zrotation
  JOINT spine
  {
    OFFSET 0 0.05383551117999996 0
    CHANNELS 3 Yrotation Xrotation Zrotation
    JOINT chest
    {
      OFFSET 0 0.6394558760401424 0
      CHANNELS 3 Yrotation Xrotation Zrotation
      JOINT neck
      {
        OFFSET 0 2.720089088562982 0
        CHANNELS 3 Yrotation Xrotation Zrotation
        JOINT head
        {
          OFFSET 0 0.37880844870545777 0
          CHANNELS 3 Yrotation Xrotation Zrotation
          JOINT rightEye
          {
            OFFSET -0.42867780714 0.7547055649100001 0.7381831347
            CHANNELS 3 Yrotation Xrotation Zrotation
            End Site
            {
              OFFSET -0.42867780714 0.7547055649100001 0.7381831347
            }
          }
          JOINT leftEye
          {
            OFFSET 0.428676479 0.7547055559999993 0.7381844503
            CHANNELS 3 Yrotation Xrotation Zrotation
            End Site
            {
              OFFSET 0.428676479 0.7547055559999993 0.7381844503
            }
          }
          JOINT jaw
          {
            OFFSET -0.18933892286100001 1.5626303011000007 1.137441874206
            CHANNELS 3 Yrotation Xrotation Zrotation
            End Site
            {
              OFFSET -0.18933892286100001 1.5626303011000007 1.137441874206
            }
          }
        }
      }
      JOINT rightShoulder
      {
        OFFSET -0.6795351508 2.0665205 0
        CHANNELS 3 Yrotation Xrotation Zrotation
        JOINT rightUpperArm
        {
          OFFSET -0.7287400483531672 0 0
          CHANNELS 3 Yrotation Xrotation Zrotation
          JOINT rightLowerArm
          {
            OFFSET -1.9872982039174532 0 0
            CHANNELS 3 Yrotation Xrotation Zrotation
            JOINT rightHand
            {
              OFFSET -2.6451847532219275 0 0
              CHANNELS 3 Yrotation Xrotation Zrotation
              JOINT rightLittleProximal
              {
                OFFSET -0.8008804099999995 -0.09592044000000044 -0.26183688629999996
                CHANNELS 3 Yrotation Xrotation Zrotation
                JOINT rightLittleIntermediate
                {
                  OFFSET -0.2473955153999997 -0.02541697026000067 0.002370178700999967
                  CHANNELS 3 Yrotation Xrotation Zrotation
                  JOINT rightLittleDistal
                  {
                    OFFSET -0.163687229200001 -0.015790700860001117 -0.0004274845300000635
                    CHANNELS 3 Yrotation Xrotation Zrotation
                    End Site
                    {
                      OFFSET -0.163687229200001 -0.015790700860001117 -0.0004274845300000635
                    }
                  }
                }
              }
              JOINT rightRingProximal
              {
                OFFSET -0.8393382799999985 -0.06223833561000025 -0.09213143500000005
                CHANNELS 3 Yrotation Xrotation Zrotation
                JOINT rightRingIntermediate
                {
                  OFFSET -0.3284497260000011 -0.03264224524000103 0.009408593183000052
                  CHANNELS 3 Yrotation Xrotation Zrotation
                  JOINT rightRingDistal
                  {
                    OFFSET -0.19447660429999902 -0.021730899850000318 0.003074347969000052
                    CHANNELS 3 Yrotation Xrotation Zrotation
                    End Site
                    {
                      OFFSET -0.19447660429999902 -0.021730899850000318 0.003074347969000052
                    }
                  }
                }
              }
              JOINT rightMiddleProximal
              {
                OFFSET -0.8473005199999989 -0.06735503500000095 0.10541820299999995
                CHANNELS 3 Yrotation Xrotation Zrotation
                JOINT rightMiddleIntermediate
                {
                  OFFSET -0.3450455799999995 -0.02481901642000084 0.019012570390000032
                  CHANNELS 3 Yrotation Xrotation Zrotation
                  JOINT rightMiddleDistal
                  {
                    OFFSET -0.23542332000000088 -0.025003910029999243 0.0075583457949999905
                    CHANNELS 3 Yrotation Xrotation Zrotation
                    End Site
                    {
                      OFFSET -0.23542332000000088 -0.025003910029999243 0.0075583457949999905
                    }
                  }
                }
              }
              JOINT rightIndexProximal
              {
                OFFSET -0.8008568281999987 -0.09897839600000169 0.29462796
                CHANNELS 3 Yrotation Xrotation Zrotation
                JOINT rightIndexIntermediate
                {
                  OFFSET -0.30524754480000016 -0.024634122809999992 0.02743375304999998
                  CHANNELS 3 Yrotation Xrotation Zrotation
                  JOINT rightIndexDistal
                  {
                    OFFSET -0.23067378950000017 -0.016876459159999913 0.008484125099999983
                    CHANNELS 3 Yrotation Xrotation Zrotation
                    End Site
                    {
                      OFFSET -0.23067378950000017 -0.016876459159999913 0.008484125099999983
                    }
                  }
                }
              }
              JOINT rightThumbProximal
              {
                OFFSET -0.25574064999999935 -0.12833189930000155 0.22385698609999993
                CHANNELS 3 Yrotation Xrotation Zrotation
                JOINT rightThumbIntermediate
                {
                  OFFSET -0.22791743260000086 -0.07103586192999978 0.27385039
                  CHANNELS 3 Yrotation Xrotation Zrotation
                  JOINT rightThumbDistal
                  {
                    OFFSET -0.13610267659999975 -0.03369390969999997 0.14246511509999996
                    CHANNELS 3 Yrotation Xrotation Zrotation
                    End Site
                    {
                      OFFSET -0.13610267659999975 -0.03369390969999997 0.14246511509999996
                    }
                  }
                }
              }
            }
          }
        }
      }
      JOINT leftShoulder
      {
        OFFSET 0.6795338396 2.0665205 0
        CHANNELS 3 Yrotation Xrotation Zrotation
        JOINT leftUpperArm
        {
          OFFSET 0.7287383950230443 0 0
          CHANNELS 3 Yrotation Xrotation Zrotation
          JOINT leftLowerArm
          {
            OFFSET 1.9872997282019604 0 0
            CHANNELS 3 Yrotation Xrotation Zrotation
            JOINT leftHand
            {
              OFFSET 2.6451820781302327 0 0
              CHANNELS 3 Yrotation Xrotation Zrotation
              JOINT leftLittleProximal
              {
                OFFSET 0.8008804099999995 -0.09592306899999814 -0.2618342639000001
                CHANNELS 3 Yrotation Xrotation Zrotation
                JOINT leftLittleIntermediate
                {
                  OFFSET 0.2473981400000007 -0.02542352681000093 0.0023609995859999455
                  CHANNELS 3 Yrotation Xrotation Zrotation
                  JOINT leftLittleDistal
                  {
                    OFFSET 0.1636846068000002 -0.015794634789999318 -0.00043272972159996703
                    CHANNELS 3 Yrotation Xrotation Zrotation
                    End Site
                    {
                      OFFSET 0.1636846068000002 -0.015794634789999318 -0.00043272972159996703
                    }
                  }
                }
              }
              JOINT leftRingProximal
              {
                OFFSET 0.8393409199999996 -0.062242267999998324 -0.0921281570000001
                CHANNELS 3 Yrotation Xrotation Zrotation
                JOINT leftRingIntermediate
                {
                  OFFSET 0.3284471036000003 -0.03264224524000103 0.009405970574000042
                  CHANNELS 3 Yrotation Xrotation Zrotation
                  JOINT leftRingDistal
                  {
                    OFFSET 0.1944779099999996 -0.021732211159998904 0.003073036670000001
                    CHANNELS 3 Yrotation Xrotation Zrotation
                    End Site
                    {
                      OFFSET 0.1944779099999996 -0.021732211159998904 0.003073036670000001
                    }
                  }
                }
              }
              JOINT leftMiddleProximal
              {
                OFFSET 0.8473005200000001 -0.06736028199999788 0.1054214809999999
                CHANNELS 3 Yrotation Xrotation Zrotation
                JOINT leftMiddleIntermediate
                {
                  OFFSET 0.3450455799999995 -0.024824261000000014 0.019013225990000007
                  CHANNELS 3 Yrotation Xrotation Zrotation
                  JOINT leftMiddleDistal
                  {
                    OFFSET 0.2354259489999998 -0.025005222000000327 0.0075590014499999705
                    CHANNELS 3 Yrotation Xrotation Zrotation
                    End Site
                    {
                      OFFSET 0.2354259489999998 -0.025005222000000327 0.0075590014499999705
                    }
                  }
                }
              }
              JOINT leftIndexProximal
              {
                OFFSET 0.8008594516999996 -0.09898495199999946 0.29463124239999994
                CHANNELS 3 Yrotation Xrotation Zrotation
                JOINT leftIndexIntermediate
                {
                  OFFSET 0.30524754480000016 -0.024632811499998963 0.02743047472
                  CHANNELS 3 Yrotation Xrotation Zrotation
                  JOINT leftIndexDistal
                  {
                    OFFSET 0.23067378950000017 -0.016876459159999913 0.008481502700000004
                    CHANNELS 3 Yrotation Xrotation Zrotation
                    End Site
                    {
                      OFFSET 0.23067378950000017 -0.016876459159999913 0.008481502700000004
                    }
                  }
                }
              }
              JOINT leftThumbProximal
              {
                OFFSET 0.25574326469999953 -0.12833321050000013 0.22385764169999997
                CHANNELS 3 Yrotation Xrotation Zrotation
                JOINT leftThumbIntermediate
                {
                  OFFSET 0.22804987480000094 -0.07138466829999968 0.273648441
                  CHANNELS 3 Yrotation Xrotation Zrotation
                  JOINT leftThumbDistal
                  {
                    OFFSET 0.13614857189999907 -0.033867001519998885 0.14238119169999996
                    CHANNELS 3 Yrotation Xrotation Zrotation
                    End Site
                    {
                      OFFSET 0.13614857189999907 -0.033867001519998885 0.14238119169999996
                    }
                  }
                }
              }
            }
          }
        }
      }
    }
  }
  JOINT rightUpperLeg
  {
    OFFSET -0.9749898906000001 -1.8495733739999998 0
    CHANNELS 3 Yrotation Xrotation Zrotation
    JOINT rightLowerLeg
    {
      OFFSET 0 -4.1566544686813165 0
      CHANNELS 3 Yrotation Xrotation Zrotation
      JOINT rightFoot
      {
        OFFSET 0.14539718599999998 -4.225553926 -0.3666210900000001
        CHANNELS 3 Yrotation Xrotation Zrotation
        JOINT rightToes
        {
          OFFSET 0.1706738473 -0.9584117400000015 1.0093348617
          CHANNELS 3 Yrotation Xrotation Zrotation
          End Site
          {
            OFFSET 0.1706738473 -0.9584117400000015 1.0093348617
          }
        }
      }
    }
  }
  JOINT leftUpperLeg
  {
    OFFSET 0.9749898906000001 -1.8495733739999998 0
    CHANNELS 3 Yrotation Xrotation Zrotation
    JOINT leftLowerLeg
    {
      OFFSET 0 -4.156653488267941 0
      CHANNELS 3 Yrotation Xrotation Zrotation
      JOINT leftFoot
      {
        OFFSET -0.14537357999999995 -4.225555399999999 -0.36661124279999996
        CHANNELS 3 Yrotation Xrotation Zrotation
        JOINT leftToes
        {
          OFFSET -0.17066467000000002 -0.9584157000000019 1.0093348617
          CHANNELS 3 Yrotation Xrotation Zrotation
          End Site
          {
            OFFSET -0.17066467000000002 -0.9584157000000019 1.0093348617
          }
        }
      }
    }
  }
}
MOTION
Frames: 4
Frame Time: 0.03333333333333333
-0.005271495319902897 -0.06505851681640706 0.027539074420928955 -3.435004493949487 0.5116809248571844 -0.8513914696855787 1.5715226667746758 2.8616801132971124 0.025826387599779996 0.8353550527257776 1.278256942957369 -0.4542772478468448 0.09364447096412085 -0.7624731066540378 0.8612720259744215 4.231767335005626 -2.0702421529071136 0.5525682915469244 0 0 0 0 0 0 0 0 0 4.1301066629071 0.521901491409008 17.73280974379892 7.641092966906207 19.199136560823437 56.7909889348372 44.897192384311154 0.21585597947309024 -0.5224049310318514 -2.491057352518328 14.288887165493197 5.689678114494201 -6.08946261995525 2.8357819690587145 64.24614529058374 -2.544564743896032 0.8830449622057069 41.53009793442853 -2.6840955478133735 0.9208195753354756 41.530707830477226 -5.3733820422167335 1.5357603594711535 56.49811825230915 -3.669056589921907 2.483039945823107 68.31728019771167 -3.6960828985240206 2.623118501988196 70.31020664030736 -6.715752900321857 3.0159999317710264 47.60869234973281 -3.8519098682503135 3.5570684341914474 85.17900703579014 -3.961621954370356 3.730680892165696 87.18183576016848 -5.480685434790159 1.5204448302252682 39.22439401449402 -3.633911643311221 2.4868787068691343 68.64023008684482 -3.666903043229309 2.496301323118853 68.64064966849547 -59.96301558267862 -44.62401798048068 50.58646425751386 1.2637179745923108 -2.9059911603848607 -26.49755648092127 0.01519577602082213 0.039560882367896226 -0.6659633890661939 2.8476124213488503 0.771289162596703 -13.26276548803627 -30.506136282989093 8.949498939943954 -59.333413211625974 -25.965875352883653 0.07466526124131823 0.32405972232991487 -3.146342811412255 5.933504800181454 -11.475778558809399 7.486156079093139 5.009608814529737 -87.9002040259063 4.800473681887272 4.11796109835953 -76.26597983423483 4.822686951845104 4.1105243482552885 -76.26633827969661 7.38478982132616 4.14058634900331 -80.73223217579064 5.130610906421391 5.167505236046963 -90.39539859933703 5.126238822544666 5.345595438925986 -92.38780262773427 7.3298346433249995 3.905965584765136 -78.09615385473094 5.119642662401433 4.734930755584062 -85.57721955311168 5.128108646782831 4.915136824069979 -87.56833784382394 8.678622266413418 6.46266914405579 -63.89457909304002 4.990931427047656 3.920128983749685 -76.26057641278737 4.45192413480802 2.594357076870504 -60.37506400399479 9.027250050197845 11.32904802222321 12.268701807990883 8.016945795153937 15.038374857986716 9.626052683316 10.71090653415379 -1.2136674588879428 5.978937443193357 -12.687130314045982 -0.6452123555072676 2.885868432270277 -4.737356118482489 6.157492063613693 -3.35221100399776 -0.20440237567525346 -6.080032282871369 2.3051194577192415 0.000009384966858948872 -0.24565749745337595 -1.739226594918345e-7 14.26881906858212 -0.5505116322445 -2.3029557242412495 -6.588752386814226 8.574539329001531 2.4940760519711436 0.016315499205726284 -7.680802095279271 -0.16616932653800015 0.0001751336987514193 -0.07094540648143613 0.013776692897228814
-0.005526004824787378 -0.06520919735839925 0.027168288826942444 -3.438247203187532 0.4981785039002002 -0.8658828294753517 1.5907963175488748 2.866600794636868 0.01081863512679524 0.8474990931176343 1.2830610466190009 -0.4532019357760206 0.0908873585218869 -0.7606727125190584 0.8734425989547601 4.228467721560179 -2.0357723944715866 0.576294401034147 0 0 0 0 0 0 0 0 0 4.141648198535475 0.5210886118665133 17.731545075037396 7.706697317009902 19.195722880608777 56.584767997546116 44.80784008471459 0.21504639622945085 -0.5215896720291062 -2.2138666246677356 14.629135759915078 6.4707268443089765 -6.1538530303505405 2.8830557924262425 61.52125014525533 -2.345551382832215 0.7307874629592002 37.876249241285834 -2.4395494011159555 0.7310078078489143 37.01431067828065 -5.331140285777418 1.4987902035058578 53.39747785889473 -3.5860881758509473 2.2888324327473804 65.23671751884814 -3.612984711713906 2.4076932505138036 66.9422327702006 -6.87434801504866 2.9697773984098035 44.14826379934265 -3.8421380394825264 3.465427997224369 83.83358145904774 -3.9559344494140114 3.638997970374034 85.84075330943614 -5.289473496819433 1.313259087582366 36.21556247245275 -3.5720945724897217 2.3390765749267013 66.30320574886676 -3.6072142728886365 2.3523547034121055 66.36773081036475 -59.85015525389049 -44.69805964281023 50.79808430925131 1.3027061482045896 -2.8361852306664987 -26.467381275061463 0.025006871204379975 0.08882479144638428 -0.5527639111516551 2.847408137446944 0.7710283111212914 -13.258288699334079 -30.65866388290625 9.06874124687096 -59.3102265592101 -26.093485017590968 0.07538989557474972 0.32552035878343494 -3.1150437988788258 5.814054112886645 -11.466889640667613 7.486144858238597 5.009306276828788 -87.90022057287926 4.800421636817054 4.117731694808956 -76.26335389716789 4.822645136303888 4.110288955019468 -76.26372149472328 7.384734517190886 4.140306006457783 -80.73226924238769 5.130611189138632 5.167031601261385 -90.38992888745821 5.126259058903429 5.345117809922374 -92.38232072564121 7.328977031043302 3.902654222497727 -78.06147727404432 5.119548338462967 4.733564324672295 -85.56204201051787 5.128060917001971 4.913763174999631 -87.55319724229619 8.679532989878291 6.466077306135067 -63.904029261737406 4.9910831251941445 3.920826441387671 -76.26872295212236 4.452292054403219 2.594977125332173 -60.38316932044916 9.047172630669424 11.337106833068756 12.27146720146889 8.027252977998195 15.071060706885117 9.608398274772302 10.711745338279238 -1.2224432467988753 5.9917735473374405 -12.687752531054482 -0.6197890555697995 2.899462182563553 -4.732393680052838 6.138398593728269 -3.34937156138682 -0.2040776959711803 -6.070015909264327 2.3006370132057463 0.000009384966858948872 -0.24565749745337595 -1.739226594918345e-7 14.26808658169782 -0.5653250938991644 -2.2919401707679716 -6.581596668552549 8.622177443142565 2.5064590511014337 0.01685177693805802 -7.703815187817021 -0.17479955045597284 0.00014780436601124618 -0.06982526795254686 0.01178519522115563
-0.004796476569026709 -0.06492214138916097 0.02582150138914585 -3.5469705397584557 0.45876933869492476 -0.8692840724479969 1.6145621938206658 2.886135841532857 -0.037628195216690835 0.8663794549268572 1.2896686787436125 -0.43228933486099985 0.09177525810372308 -0.7304053681893856 0.8980466480686201 4.26028186708582 -1.9564742243025037 0.6300491390925087 0 0 0 0 0 0 0 0 0 4.158299020173744 0.5200678833411858 17.712710271795746 8.393188108265745 19.24762100324599 55.9656149266904 44.735152410922765 0.21439680332518454 -0.5209241162058423 -1.1788351963048538 16.24027728993095 9.210588428287046 -5.436994635052916 1.6409745088280465 53.10877385449549 -1.65853997722936 0.3371849601980655 26.309928088136523 -1.642435641626178 0.29092064462428446 23.699040575243433 -5.73576737753808 1.8115140666228022 42.25858030985209 -3.03203460514241 1.410999298369507 50.05341663968213 -3.0658521477813907 1.483623541122899 51.231305215449595 -7.407811274776723 2.6379556471601244 33.03535853066946 -3.7068261862084486 2.809542911562151 74.05061195609922 -3.850251791959223 2.979194402275114 76.07738648747386 -3.2680032236729817 0.08371952607760422 26.337516651655807 -3.168046404868262 1.6336652498708368 54.42634404806707 -3.211768399084505 1.653848973898149 54.64111972118066 -60.038439992322864 -43.59764191205923 50.23726171047467 2.0851644721672047 -1.4321978725104891 -26.47455310483 0.030205811693858064 0.11614064286191797 -0.4904002235309242 2.8531403054952373 0.771725533850624 -13.267726889499045 -30.94125715036558 9.342603348262859 -59.277500282935584 -26.37759731311198 0.07702302593238393 0.32885160899223514 -3.0398314845804753 5.526673132421235 -11.445769016718643 7.486120270433211 5.008650636116035 -87.90028296380447 4.800164677284302 4.116490092037989 -76.24913639338776 4.822383592351654 4.1090452239124895 -76.24948749317998 7.384632366837929 4.139640032808798 -80.73233382429474 5.130641566449742 5.164394683569411 -90.36054112415358 5.126374990340578 5.342489999561795 -92.3529052610389 7.327804094089069 3.8980686555510586 -78.01607955902581 5.119314517738055 4.730473373667828 -85.52738122575907 5.127923440225253 4.910670975333676 -87.51850872480621 8.687834302366781 6.482141474066129 -63.89651980209701 4.9913392531727805 3.9218281284980323 -76.28021714317829 4.452757585443065 2.595829425385223 -60.394045054203865 9.067771601515432 11.345458456418312 12.274312007114917 8.033064009088688 15.097568487946438 9.59538801832988 10.712842336800236 -1.2339402427608557 6.008582614028292 -12.686730326120468 -0.5923726361996119 2.9018978440436647 -4.625669993582086 6.135960758574861 -3.365369017515255 -0.20379643998355518 -6.05277575010024 2.3081773708061135 0.000009384966858948872 -0.24565749745337595 -1.739226594918345e-7 14.26723557530797 -0.5135354487985307 -2.284948077566577 -6.471449764843077 8.595089385150102 2.515320246833686 0.017005145293363427 -7.696117310668723 -0.17560635880170036 0.00015833575177774748 -0.07004350733333305 0.012194514950233298
-0.002684728940948844 -0.064377593354493 0.023551879450678825 -3.7001222974125203 0.40899357337059683 -0.8657963271618226 1.63486133455732 2.89549550635447 -0.1128881488314809 0.885639975692303 1.2878442365630784 -0.4060141456016187 0.09526147788238114 -0.6568026540346238 0.9392744558630741 4.3487443055208805 -1.8062227290245207 0.65332997868634 0 0 0 0 0 0 0 0 0 4.158342766958543 0.520768967146384 17.616104248845687 9.477469926464142 19.244978593171723 55.05534989035271 45.23305097311924 0.2189220094274989 -0.5254618163188296 0.5720289771197233 19.9866016756769 12.786625256645404 -3.769913486915645 0.0037149684068786665 42.86170190493882 -1.1241115828390138 0.14394601465868775 18.012887689136388 -0.97487640489727 0.0850355728896686 13.489726587592445 -6.082596159236054 1.6936761518129317 31.24749145519187 -2.270664448466253 0.7110533241562267 34.92164200265407 -2.290663928428761 0.7433081289579139 35.54564300952962 -7.59208683324601 1.9190833821597058 22.23772539692763 -3.3008350888323053 1.8925633092582508 59.38496694499211 -3.486388857141314 2.0463097372673507 61.43242042791685 -1.942613897933185 -0.22263189690632745 16.65284280649993 -2.6236372911145467 1.0228891440782613 42.470390772093495 -2.679575727107634 1.0473827847815587 42.851597013955484 -56.122617863361896 -35.6608328055417 46.62039414317245 2.020325511233668 -1.6593156234457698 -27.718799973057806 0.03415092555712238 0.13739476293894004 -0.44197187031919094 2.84689125986175 0.7722130828550028 -13.280326398784904 -31.17433356839147 9.637806302579223 -59.266497996081604 -26.65808842120021 0.07863933432787368 0.33209913062817814 -2.9646171297707853 5.2387139504968685 -11.425009347783506 7.486089200761883 5.0078475842696415 -87.90036794819915 4.800048632728596 4.115780055336122 -76.2410502051822 4.822246631577485 4.108332625924449 -76.24140887989972 7.384496637973568 4.138852934854762 -80.73242088778056 5.130653688546569 5.1627183262861225 -90.3418907627736 5.126439104763691 5.340822166886635 -92.33429667133342 7.327353590796362 3.896190278999489 -78.00355090526375 5.119104789821135 4.727993683620603 -85.49960561036387 5.127817324490038 4.908186343092988 -87.4907274318198 8.693326591468576 6.495629996130401 -63.90971206328598 4.990984237296711 3.9204520392090534 -76.26440975825973 4.452042195352287 2.594556423913403 -60.377758074007524 9.062263597784389 11.343258849729006 12.273521809421887 8.018545448330313 15.07565675553342 9.601541469218617 10.713445414427879 -1.2400502036686356 6.017551204014705 -12.685005759120846 -0.5694822682695431 2.9000463629279487 -4.477137591982433 6.139338867752775 -3.4030050496963837 -0.20383682562466235 -6.027120440473537 2.3317653095841258 0.000009384966858948872 -0.24565749745337595 -1.739226594918345e-7 14.266506398113 -0.4311688322327914 -2.2843629416683715 -6.318853295264898 8.526829487834727 2.5162844671875932 0.016519920657541563 -7.668021890126645 -0.16422713495122312 0.00019480419710629873 -0.07175771937487437 0.01518381132196126
